<svg aria-hidden="true" style="position:absolute;width:0;height:0" xmlns="http://www.w3.org/2000/svg" overflow="hidden"><defs><symbol id="close" viewBox="0 0 24 24"><path d="M18.984 6.422L13.406 12l5.578 5.578-1.406 1.406L12 13.406l-5.578 5.578-1.406-1.406L10.594 12 5.016 6.422l1.406-1.406L12 10.594l5.578-5.578z"/></symbol><symbol id="link" viewBox="0 0 24 24"><path d="M21.1 2.8c-2.3-2.3-6-2.3-8.3 0L11 4.5c-.4.4-.4 1 0 1.4s1 .4 1.4 0l1.7-1.7c1.6-1.5 4-1.5 5.6 0s1.6 4.1.1 5.6l-3 3-.4.4c-1.8 1.3-4.3 1-5.6-.8-.3-.4-1-.5-1.4-.2s-.5 1-.2 1.4c1.2 1.6 3 2.4 4.8 2.4 1.2 0 2.5-.4 3.6-1.2.2-.2.4-.4.7-.6l3-3c2.3-2.3 2.2-6.2-.2-8.4z"/><path d="M11.5 18.1l-1.7 1.7c-1.6 1.5-4 1.5-5.6 0s-1.6-4.1-.1-5.6l3-3 .4-.4c.9-.6 1.9-.9 3-.8 1.1.2 2 .7 2.6 1.6.3.4 1 .5 1.4.2s.5-1 .2-1.4c-1-1.3-2.4-2.1-3.9-2.3-1.5-.3-3.1.1-4.4 1.1l-.6.6-3 3C.5 15.2.6 19 2.9 21.3 4.1 22.4 5.6 23 7.1 23s3-.6 4.2-1.7l1.7-1.7c.4-.4.4-1 0-1.4s-1.1-.5-1.5-.1z"/></symbol><symbol id="check-circle" viewBox="0 0 24 24"><path d="M22 10.1c-.6 0-1 .4-1 1v.9c0 5-4 9-9 9s-9-4-9-9 4-9 9-9c1.3 0 2.5.3 3.7.8.5.2 1.1 0 1.3-.5s0-1.1-.5-1.3c-1.4-.6-2.9-1-4.5-1C5.9 1 1 5.9 1 12s4.9 11 11 11 11-4.9 11-11v-.9c0-.6-.4-1-1-1z"/><path d="M9.7 10.3c-.4-.4-1-.4-1.4 0s-.4 1 0 1.4l3 3c.2.2.4.3.7.3s.5-.1.7-.3l10-10c.4-.4.4-1 0-1.4s-1-.4-1.4 0L12 12.6l-2.3-2.3z"/></symbol><symbol id="lightbulb" viewBox="0 0 22 32"><path d="M11 0C5.71 0 0 4.206 0 11c0 3.353 1.334 6.174 3.896 8.312a.478.478 0 0 0 .092.088c1.901 2.062 1.997 2.454 2.01 3.361.006.359.003.465 0 .523l-.004.209c-.015.452-.038 1.209.899 1.495l8.094 1.781a.5.5 0 0 0 .214-.977l-8.055-1.771c-.155-.047-.168-.051-.154-.498l.003-.191s.01-.078.002-.586c-.019-1.269-.295-1.882-2.309-4.059a.5.5 0 0 0-.138-.118C2.194 16.566 1 14.02 1 11 1 4.823 6.19 1 11 1c4.916 0 10 3.741 10 10 0 3.978-1.928 6.171-3.518 7.551a.485.485 0 0 0-.147.109c-2.037 2.204-2.313 2.817-2.332 4.086v.103l-.001.035c-.003.076-.014.118-.013.134L14.872 23l-4.195-.987a.5.5 0 1 0-.229.974l4.144.972c.055.02.553.182.973-.113.183-.129.396-.382.434-.866l.003-.047.002-.099-.001-.026.001-.046c.013-.902.107-1.294 2.005-3.356.009-.007.019-.014.027-.022C20.703 17.143 22 14.4 22 11c0-6.885-5.593-11-11-11zm4 29.5a.498.498 0 0 0 .487-.39.499.499 0 0 0-.377-.598l-8-1.814a.5.5 0 0 0-.221.975l8 1.814A.48.48 0 0 0 15 29.5zm-7.391.054a.5.5 0 1 0-.219.975l6.5 1.458a.5.5 0 0 0 .219-.975l-6.5-1.458z"/></symbol><symbol id="heart" viewBox="0 0 32 32"><path d="M16.042 8.345s-2-4.262-6.5-4.262c-4.917 0-7.5 4.167-7.5 8.333 0 6.917 14 15.5 14 15.5s13.916-8.5 13.916-15.5c0-4.25-2.666-8.333-7.416-8.333s-6.5 4.262-6.5 4.262z"/></symbol><symbol id="envelope" viewBox="0 0 32 32"><path d="M16.015 18.861l-4.072-3.343-8.862 10.463h25.876l-8.863-10.567-4.079 3.447zM29.926 6.019H2.111l13.908 11.698L29.926 6.019zm-9.221 8.868l9.291 11.084V7.019l-9.291 7.868zM2.004 7.019v18.952l9.291-11.084-9.291-7.868z"/></symbol><symbol id="twitter" viewBox="0 0 26 28"><path d="M25.312 6.375a10.85 10.85 0 0 1-2.531 2.609c.016.219.016.438.016.656 0 6.672-5.078 14.359-14.359 14.359-2.859 0-5.516-.828-7.75-2.266.406.047.797.063 1.219.063 2.359 0 4.531-.797 6.266-2.156a5.056 5.056 0 0 1-4.719-3.5c.313.047.625.078.953.078.453 0 .906-.063 1.328-.172a5.048 5.048 0 0 1-4.047-4.953v-.063a5.093 5.093 0 0 0 2.281.641 5.044 5.044 0 0 1-2.25-4.203c0-.938.25-1.797.688-2.547a14.344 14.344 0 0 0 10.406 5.281 5.708 5.708 0 0 1-.125-1.156 5.045 5.045 0 0 1 5.047-5.047 5.03 5.03 0 0 1 3.687 1.594 9.943 9.943 0 0 0 3.203-1.219 5.032 5.032 0 0 1-2.219 2.781c1.016-.109 2-.391 2.906-.781z"/></symbol><symbol id="play" viewBox="0 0 32 32"><path d="M6 4l20 12L6 28z"/></symbol><symbol id="github" viewBox="0 0 32 32"><path d="M16 .395c-8.836 0-16 7.163-16 16 0 7.069 4.585 13.067 10.942 15.182.8.148 1.094-.347 1.094-.77 0-.381-.015-1.642-.022-2.979-4.452.968-5.391-1.888-5.391-1.888-.728-1.849-1.776-2.341-1.776-2.341-1.452-.993.11-.973.11-.973 1.606.113 2.452 1.649 2.452 1.649 1.427 2.446 3.743 1.739 4.656 1.33.143-1.034.558-1.74 1.016-2.14-3.554-.404-7.29-1.777-7.29-7.907 0-1.747.625-3.174 1.649-4.295-.166-.403-.714-2.03.155-4.234 0 0 1.344-.43 4.401 1.64a15.353 15.353 0 0 1 4.005-.539c1.359.006 2.729.184 4.008.539 3.054-2.07 4.395-1.64 4.395-1.64.871 2.204.323 3.831.157 4.234 1.026 1.12 1.647 2.548 1.647 4.295 0 6.145-3.743 7.498-7.306 7.895.574.497 1.085 1.47 1.085 2.963 0 2.141-.019 3.864-.019 4.391 0 .426.288.925 1.099.768C27.421 29.457 32 23.462 32 16.395c0-8.837-7.164-16-16-16z"/></symbol><symbol id="linkedin" viewBox="0 0 32 32"><path d="M29 0H3C1.35 0 0 1.35 0 3v26c0 1.65 1.35 3 3 3h26c1.65 0 3-1.35 3-3V3c0-1.65-1.35-3-3-3zM12 26H8V12h4v14zm-2-16c-1.106 0-2-.894-2-2s.894-2 2-2c1.106 0 2 .894 2 2s-.894 2-2 2zm16 16h-4v-8c0-1.106-.894-2-2-2s-2 .894-2 2v8h-4V12h4v2.481C18.825 13.35 20.087 12 21.5 12c2.488 0 4.5 2.238 4.5 5v9z"/></symbol><symbol id="laptop" viewBox="0 0 512 512"><path d="M185.379 384v17.655H326.62V384h150.07V101.517c0-9.754-7.901-17.655-17.655-17.655H52.966c-9.754 0-17.655 7.901-17.655 17.655V384h150.068z" fill="#38454f"/><path d="M326.621 384v17.655H185.379V384H0v26.483c0 9.754 7.901 17.655 17.655 17.655h476.69c9.754 0 17.655-7.901 17.655-17.655V384H326.621z" fill="#b0b6bb"/><path fill="#546a79" d="M52.966 366.345h406.068V101.517H52.966z"/><path d="M432.552 348.69H300.138c-4.882 0-8.828-3.955-8.828-8.828s3.946-8.828 8.828-8.828h132.414c4.882 0 8.828 3.955 8.828 8.828s-3.947 8.828-8.828 8.828m-264.828-52.966H79.448c-4.882 0-8.828-3.955-8.828-8.828s3.946-8.828 8.828-8.828h88.276c4.882 0 8.828 3.955 8.828 8.828s-3.946 8.828-8.828 8.828m220.69 0H256c-4.882 0-8.828-3.955-8.828-8.828s3.946-8.828 8.828-8.828h132.414c4.882 0 8.828 3.955 8.828 8.828s-3.947 8.828-8.828 8.828m-176.552 0c-2.295 0-4.599-.971-6.268-2.56-1.598-1.677-2.56-3.972-2.56-6.268 0-1.148.265-2.295.706-3.354.441-1.148 1.059-2.119 1.854-2.913 3.266-3.266 9.181-3.266 12.535 0 1.589 1.677 2.56 3.972 2.56 6.268s-.971 4.59-2.56 6.268c-.441.353-.892.794-1.412 1.059-.441.353-.98.618-1.501.794a5.386 5.386 0 0 1-1.686.53c-.52.088-1.138.176-1.668.176M256 348.69H123.586c-4.882 0-8.828-3.955-8.828-8.828s3.946-8.828 8.828-8.828H256c4.882 0 8.828 3.955 8.828 8.828s-3.946 8.828-8.828 8.828m-176.552 0c-1.148 0-2.295-.265-3.354-.706a10.182 10.182 0 0 1-2.913-1.854c-1.598-1.677-2.56-3.884-2.56-6.268 0-1.148.265-2.295.706-3.354.441-1.148 1.059-2.03 1.854-2.913 2.119-2.03 5.12-2.913 7.936-2.383a5.36 5.36 0 0 1 1.686.53c.521.177 1.059.441 1.501.794.521.353.971.706 1.412 1.059.794.883 1.412 1.766 1.854 2.913.441 1.059.706 2.207.706 3.354 0 2.383-.971 4.59-2.56 6.268a21.9 21.9 0 0 1-1.412 1.059c-.441.353-.98.618-1.501.794a5.386 5.386 0 0 1-1.686.53c-.521.088-1.139.177-1.669.177m353.104-52.966c-.538 0-1.148-.088-1.677-.177a5.307 5.307 0 0 1-1.677-.53 6.93 6.93 0 0 1-1.598-.794c-.433-.353-.874-.706-1.315-1.059-1.598-1.677-2.56-3.972-2.56-6.268s.962-4.59 2.56-6.268l1.315-1.059a6.89 6.89 0 0 1 1.598-.794 5.341 5.341 0 0 1 1.677-.53c2.825-.618 5.906.353 7.945 2.383.353.441.706.883 1.059 1.412.353.441.609.971.794 1.501.265.53.441 1.059.521 1.677.097.53.185 1.148.185 1.677 0 .53-.088 1.148-.185 1.766a5.304 5.304 0 0 1-.521 1.589 7.02 7.02 0 0 1-.794 1.589l-1.059 1.324c-.441.353-.892.706-1.324 1.059a6.836 6.836 0 0 1-1.589.794 5.386 5.386 0 0 1-1.686.53c-.522.09-1.14.178-1.669.178m0-105.931H300.138c-4.882 0-8.828-3.955-8.828-8.828s3.946-8.828 8.828-8.828h132.414c4.882 0 8.828 3.955 8.828 8.828s-3.947 8.828-8.828 8.828m0 52.966h-88.276a8.826 8.826 0 0 1-8.828-8.828 8.826 8.826 0 0 1 8.828-8.828h88.276a8.826 8.826 0 0 1 8.828 8.828 8.827 8.827 0 0 1-8.828 8.828m-158.897 0H256a8.826 8.826 0 0 1-8.828-8.828 8.826 8.826 0 0 1 8.828-8.828h17.655a8.826 8.826 0 0 1 8.828 8.828 8.826 8.826 0 0 1-8.828 8.828m114.759-105.931H256a8.826 8.826 0 0 1-8.828-8.828 8.826 8.826 0 0 1 8.828-8.828h132.414a8.826 8.826 0 0 1 8.828 8.828 8.827 8.827 0 0 1-8.828 8.828m44.138 0c-.538 0-1.148-.088-1.677-.177a5.307 5.307 0 0 1-1.677-.53 6.93 6.93 0 0 1-1.598-.794c-.433-.353-.874-.706-1.315-1.059-1.598-1.677-2.56-3.972-2.56-6.268 0-2.295.962-4.59 2.56-6.268l1.315-1.059a6.89 6.89 0 0 1 1.598-.794 5.341 5.341 0 0 1 1.677-.53c2.825-.618 5.906.353 7.945 2.383.353.441.706.883 1.059 1.412.353.441.609.971.794 1.501.265.53.441 1.059.521 1.677.097.53.185 1.148.185 1.677 0 .53-.088 1.148-.185 1.766a5.304 5.304 0 0 1-.521 1.589 7.02 7.02 0 0 1-.794 1.589l-1.059 1.324c-.441.353-.892.706-1.324 1.059a6.836 6.836 0 0 1-1.589.794 5.386 5.386 0 0 1-1.686.53c-.522.089-1.14.178-1.669.178m-167.724 52.965c-2.392 0-4.599-.971-6.268-2.56-1.598-1.677-2.56-3.884-2.56-6.268 0-2.295.962-4.59 2.56-6.268 2.03-2.03 5.12-3.001 7.936-2.383a5.36 5.36 0 0 1 1.686.53c.521.177 1.059.441 1.501.794.521.265.971.706 1.324 1.059 1.677 1.677 2.648 3.972 2.648 6.268 0 2.383-.971 4.59-2.648 6.268a8.746 8.746 0 0 1-6.179 2.56m44.138 52.966c-.618 0-1.148-.088-1.766-.177a5.598 5.598 0 0 1-1.589-.53 6.93 6.93 0 0 1-1.598-.794c-.433-.353-.874-.706-1.315-1.059-1.598-1.677-2.56-3.884-2.56-6.268 0-2.295.962-4.59 2.56-6.268 3.266-3.266 9.269-3.266 12.535 0 1.589 1.677 2.56 3.972 2.56 6.268 0 .618-.088 1.148-.185 1.766a5.304 5.304 0 0 1-.521 1.589 7.02 7.02 0 0 1-.794 1.589l-1.059 1.324c-1.678 1.589-3.973 2.56-6.268 2.56" fill="#ea6148"/><path fill="#ecba16" d="M79.448 242.759h123.586V119.172H79.448z"/></symbol><symbol id="pantone" viewBox="0 0 512 512"><path d="M512 88.277v264.825c0 19.503-15.809 35.312-35.309 35.312H35.31C15.809 388.414 0 372.605 0 353.102V88.277zm0 0" fill="#b0d3f0"/><path d="M222.457 423.723l42.371 17.656 33.985-17.656 4.148-2.383 45.906-26.48 45.813-26.485 30.632-17.656-44.136-76.446-30.633 17.657-45.816 26.48-32.13 18.45-.09.09v.09l-42.991 24.89zm0 0" fill="#ff5364"/><path d="M348.867 394.86l-45.906 26.48-39.547-68.5v-.09l1.414-2.473 7.68-13.238v-.09l.09-.09 32.129-18.449zm0 0" fill="#df4d60"/><path d="M425.313 350.719l-30.633 17.656-44.137-76.445 30.633-17.657c8.437-4.836 19.199-1.957 24.097 6.446l26.485 45.902c4.867 8.434 1.98 19.219-6.445 24.098zm0 0" fill="#fb7b76"/><path d="M302.96 421.34l-4.147 2.383h-76.356l10.328-17.918 5.559-9.621 25.07-43.344zm0 0" fill="#802d40"/><path d="M512 35.309v70.62H0V35.31C0 15.809 15.809 0 35.309 0H476.69C496.191 0 512 15.809 512 35.309zm0 0" fill="#894b9d"/><path d="M70.621 52.965c0 9.75-7.906 17.656-17.656 17.656s-17.656-7.906-17.656-17.656 7.906-17.656 17.656-17.656S70.62 43.215 70.62 52.965zm0 0" fill="#e64c3c"/><path d="M141.242 52.965c0 9.75-7.906 17.656-17.656 17.656s-17.656-7.906-17.656-17.656 7.906-17.656 17.656-17.656 17.656 7.906 17.656 17.656zm0 0" fill="#f0c419"/><path d="M211.863 52.965c0 9.75-7.906 17.656-17.656 17.656s-17.656-7.906-17.656-17.656 7.906-17.656 17.656-17.656 17.656 7.906 17.656 17.656zm0 0" fill="#14a085"/><path d="M370.758 61.793h-88.274c-4.879 0-8.828-3.953-8.828-8.828s3.95-8.828 8.828-8.828h88.274a8.829 8.829 0 0 1 0 17.656zm97.105 0H406.07a8.829 8.829 0 0 1 0-17.656h61.793a8.829 8.829 0 0 1 0 17.656zm0 0" fill="#955ba5"/><path d="M97.102 194.207h88.277v247.172H97.102zm0 0" fill="#d25627"/><path d="M97.102 264.828h88.277v52.965H97.102zm0 0" fill="#e57e25"/><path d="M97.102 211.863h88.277v52.965H97.102zm0 0" fill="#f29c1f"/><path d="M185.379 176.55v35.313H97.102v-35.312c.03-9.738 7.918-17.625 17.656-17.653h52.965c9.738.028 17.629 7.915 17.656 17.653zm0 0" fill="#f0c419"/><path d="M335.45 227.93l-17.657 30.629-76.445-44.137L259 183.789c4.902-8.402 15.66-11.277 24.102-6.441l45.902 26.48c8.402 4.902 11.281 15.66 6.445 24.102zm0 0" fill="#7ed09e"/><path d="M214.875 260.21l26.484-45.815 76.43 44.175-26.484 45.82zm0 0" fill="#71c285"/><path d="M214.863 260.238l-26.484 45.903-3 5.207v112.375h37.078l10.328-17.918 5.559-9.621 25.07-43.344v-.09l1.414-2.473 7.68-13.238v-.09l.09-.09 18.71-32.484zm0 0" fill="#24ae5f"/><path d="M291.309 304.375l-18.711 32.484-.09.09v.09l-7.68 13.238-76.45-44.136 26.485-45.903zm0 0" fill="#4fba6f"/><path d="M238.344 396.184l-5.559 9.62-10.328 17.919h-37.078v-58.086l18.805 10.86 17.476 10.062zm0 0" fill="#1b8347"/><path d="M123.586 423.723H406.07V512H123.586zm0 0" fill="#285680"/><path d="M185.379 370.758v52.965h-70.621c-9.738.03-17.625 7.918-17.656 17.656v-70.621zm0 0" fill="#c03a2b"/><path d="M238.344 423.723V512H114.758c-9.738-.027-17.625-7.918-17.656-17.656v-52.965c.03-9.738 7.918-17.625 17.656-17.656zm0 0" fill="#35495e"/><path d="M291.309 423.723h52.968V512H291.31zm0 0" fill="#2980ba"/><path d="M344.277 423.723h52.965V512h-52.965zm0 0" fill="#3b97d3"/><path d="M450.207 441.379v52.965c-.027 9.738-7.918 17.629-17.656 17.656h-35.309v-88.277h35.309c9.738.03 17.629 7.918 17.656 17.656zm0 0" fill="#67b9cc"/><path d="M150.07 459.035a8.829 8.829 0 0 0-17.656 0 8.829 8.829 0 0 0 0 17.656c0 4.875 3.953 8.825 8.828 8.825s8.828-3.95 8.828-8.825a8.829 8.829 0 0 0 0-17.656zm0 0" fill="#e6e7e8"/></symbol><symbol id="hearts" viewBox="0 0 57.947 57.947"><path d="M28.947 56.486c15.685-11.277 23.532-21.592 27.222-29.46 4.311-9.193.561-20.589-8.845-24.413C36.268-1.88 28.947 8.486 28.947 8.486S21.678-1.907 10.623 2.588C1.217 6.412-2.533 17.808 1.778 27.001c3.69 7.867 11.484 18.209 27.169 29.485z" fill="#e64c3c"/></symbol><symbol id="browser" viewBox="0 0 512.883 512.883"><path d="M512 106.372H0V17.214C0 7.503 7.062.441 16.772.441H496.11c8.828 0 16.772 7.062 16.772 16.772v89.159H512z" fill="#546a79"/><path d="M79.448 53.407c0 15.007-11.476 26.483-26.483 26.483S26.483 68.414 26.483 53.407s11.476-26.483 26.483-26.483S79.448 38.4 79.448 53.407" fill="#ed7161"/><path d="M158.897 53.407c0 15.007-11.476 26.483-26.483 26.483s-26.483-11.476-26.483-26.483 11.476-26.483 26.483-26.483 26.483 11.476 26.483 26.483" fill="#ecba16"/><path d="M238.345 53.407c0 15.007-11.476 26.483-26.483 26.483s-26.483-11.476-26.483-26.483 11.476-26.483 26.483-26.483 26.483 11.476 26.483 26.483" fill="#42b05c"/><path d="M0 106.372V493.02c0 10.593 8.828 19.421 19.421 19.421h473.16c10.593 0 19.421-8.828 19.421-19.421V106.372H0z" fill="#e8edee"/><path d="M291.31 380.028c0 19.421-15.89 35.31-35.31 35.31s-35.31-15.89-35.31-35.31c0-19.421 15.89-35.31 35.31-35.31s35.31 15.889 35.31 35.31" fill="#25ae88"/><path d="M256 194.648c-102.4 0-185.379 82.979-185.379 185.379H220.69c0-19.421 15.89-35.31 35.31-35.31s35.31 15.89 35.31 35.31h150.069c0-102.399-82.979-185.379-185.379-185.379" fill="#fff"/><path d="M271.007 373.848c-1.766 0-4.414-.883-5.297-1.766-3.531-3.531-4.414-8.828-.883-12.359l55.614-64.441c3.531-3.531 8.828-4.414 12.359-.883 3.531 3.531 4.414 8.828.883 12.359L278.069 371.2c-1.766 1.766-4.414 2.648-7.062 2.648" fill="#25ae88"/><path d="M256 256.441c-5.297 0-8.828-3.531-8.828-8.828v-45.021c0-5.297 3.531-8.828 8.828-8.828 5.297 0 8.828 3.531 8.828 8.828v45.021c0 5.297-3.531 8.828-8.828 8.828m-61.793 8.828c-3.531 0-6.179-1.766-7.945-4.414l-17.655-34.428c-1.766-4.414-.883-9.71 3.531-11.476s9.71-.883 11.476 3.531l17.655 34.428c1.766 4.414.883 9.71-3.531 11.476-.883.883-1.766.883-3.531.883" fill="#7383bf"/><path d="M317.793 265.269c-1.766 0-2.648 0-3.531-.883-4.414-1.766-6.179-7.062-3.531-11.476l16.772-33.545c1.766-4.414 7.062-6.179 11.476-3.531 4.414 1.766 6.179 7.062 3.531 11.476l-16.772 33.545c-1.766 2.648-4.414 4.414-7.945 4.414" fill="#ed7161"/><path d="M141.241 309.407c-1.766 0-3.531-.883-5.297-1.766l-30.897-21.186c-4.414-2.648-5.297-7.945-2.648-12.359 2.648-4.414 7.945-5.297 12.359-2.648l30.897 21.186c4.414 2.648 5.297 7.945 2.648 12.359-1.765 2.648-4.413 4.414-7.062 4.414" fill="#7383bf"/><path d="M370.759 309.407c-2.648 0-5.297-1.766-7.062-3.531-2.648-4.414-1.766-9.71 2.648-12.359l30.897-21.186c4.414-2.648 9.71-1.766 12.359 2.648 2.648 4.414 1.766 9.71-2.648 12.359l-30.897 21.186c-1.766 0-3.532.883-5.297.883" fill="#ed7161"/></symbol></defs></svg>